<svg width="145" height="48" viewBox="0 0 145 48" fill="none" xmlns="http://www.w3.org/2000/svg">
<path d="M71.863 19.5114C70.1713 19.5114 68.5039 20.2377 67.2311 21.6655V14.6242H64.712V26.4796C64.712 30.328 67.8317 33.4477 71.6801 33.4477C75.5285 33.4477 78.6482 30.328 78.6482 26.4796C78.6482 22.6312 75.7113 19.5114 71.863 19.5114ZM71.6801 30.7638C69.314 30.7638 67.3958 28.8457 67.3958 26.4795C67.3958 24.1134 69.314 22.1952 71.6801 22.1952C74.0463 22.1952 75.9645 24.1134 75.9645 26.4795C75.9645 28.8457 74.0463 30.7638 71.6801 30.7638Z" fill="#262626"/>
<path d="M87.4699 19.5114C85.7783 19.5114 84.1109 20.2377 82.838 21.6655V14.6242H80.319V26.4787L80.319 26.4796C80.319 30.328 83.4387 33.4477 87.2871 33.4477C91.1354 33.4477 94.2552 30.328 94.2552 26.4796C94.2552 22.6312 91.3183 19.5114 87.4699 19.5114ZM87.2871 30.7638C84.921 30.7638 83.0028 28.8457 83.0028 26.4795C83.0028 24.1134 84.921 22.1952 87.2871 22.1952C89.6532 22.1952 91.5714 24.1134 91.5714 26.4795C91.5714 28.8457 89.6532 30.7638 87.2871 30.7638Z" fill="#262626"/>
<path d="M50.5379 27.7001V19.8894H53.2397V27.6756C53.2397 29.6652 54.3942 30.9424 56.3346 30.9424C58.2996 30.9424 59.4295 29.7143 59.4295 27.6756V19.8894H62.1558V27.7001C62.1558 31.3108 59.9698 33.4477 56.3346 33.4477C52.7976 33.4477 50.5379 31.2371 50.5379 27.7001Z" fill="#262626"/>
<path d="M99.1306 14.6242H96.4287V33.1283H99.1306V14.6242Z" fill="#262626"/>
<path d="M114.425 27.5528H104.084C104.477 29.616 105.926 31.0161 108.481 31.0161C109.979 31.0161 111.797 30.4512 112.976 29.5915L114.106 31.581C112.755 32.5881 110.618 33.4232 108.383 33.4232C103.421 33.4232 101.284 29.9599 101.284 26.4721C101.284 24.4825 101.898 22.8368 103.151 21.535C104.404 20.2332 106.049 19.5701 108.039 19.5701C109.93 19.5701 111.502 20.1596 112.706 21.3631C113.909 22.5666 114.523 24.1877 114.523 26.2509C114.523 26.6195 114.499 27.0616 114.425 27.5528ZM104.084 25.3422H111.797C111.576 23.2544 110.028 21.9035 108.039 21.9035C106 21.9035 104.477 23.279 104.084 25.3422Z" fill="#262626"/>
<path d="M41.9595 19.5114C40.2678 19.5114 38.6005 20.2377 37.3275 21.6655V14.6242H34.8085V26.4796C34.8085 30.328 37.9282 33.4477 41.7766 33.4477C45.625 33.4477 48.7448 30.328 48.7448 26.4796C48.7448 22.6312 45.8078 19.5114 41.9595 19.5114ZM41.7766 30.7638C39.4105 30.7638 37.4923 28.8457 37.4923 26.4795C37.4923 24.1134 39.4105 22.1952 41.7766 22.1952C44.1428 22.1952 46.0609 24.1134 46.0609 26.4795C46.0609 28.8457 44.1428 30.7638 41.7766 30.7638Z" fill="#262626"/>
<path d="M32.977 30.0015C32.0253 30.0015 31.2539 30.7729 31.2539 31.7246C31.2539 32.6762 32.0253 33.4477 32.977 33.4477C33.9287 33.4477 34.7001 32.6762 34.7001 31.7246C34.7001 30.7729 33.9287 30.0015 32.977 30.0015Z" fill="#525252"/>
</svg>
