<svg width="145" height="48" viewBox="0 0 145 48" fill="none" xmlns="http://www.w3.org/2000/svg">
<path d="M32.9604 9.60137V31.8477L35.8229 31.8565V21.2625H42.7244V18.4623H35.8229V12.4002H44.8111V9.59998L32.9604 9.60137Z" fill="#525252"/>
<path d="M49.9609 14.1172C50.992 14.1172 51.8277 13.2814 51.8277 12.2504C51.8277 11.2193 50.992 10.3835 49.9609 10.3835C48.93 10.3835 48.0942 11.2193 48.0942 12.2504C48.0942 13.2814 48.93 14.1172 49.9609 14.1172Z" fill="#525252"/>
<path d="M48.5082 16.9181V31.8527H51.3706V16.9181H48.5082Z" fill="#525252"/>
<path fill-rule="evenodd" clip-rule="evenodd" d="M61.9865 16.4822C58.1854 16.4822 55.5328 19.697 55.5328 23.5138C55.5328 27.3308 58.1854 30.5456 61.9865 30.5456C63.7268 30.5456 65.1609 29.8718 66.2046 28.7751V30.7634C66.2046 33.2378 64.2611 35.3059 61.7244 35.3059C60.8126 35.3059 59.9067 34.9525 59.1849 34.4551L57.7507 36.9392C58.8961 37.6776 60.2602 38.1062 61.7244 38.1062C65.7797 38.1062 69.0671 34.8187 69.0671 30.7634V16.9177H66.2046V18.2527C65.1609 17.1559 63.7268 16.4822 61.9865 16.4822ZM58.3952 23.5138C58.3952 21.1446 60.2075 19.2824 62.2977 19.2824C64.3881 19.2824 66.2002 21.1446 66.2002 23.5138C66.2002 25.883 64.3881 27.7453 62.2977 27.7453C60.2075 27.7453 58.3952 25.883 58.3952 23.5138Z" fill="#525252"/>
<path d="M79.3836 19.2824C77.691 19.2824 76.3189 20.7167 76.3189 22.4093V31.8524H73.4565V16.9177H76.3189V18.2858C77.1576 17.2016 78.3933 16.4822 80.0058 16.4822C82.0116 16.4822 83.551 17.4784 84.4425 19.003C85.434 17.5304 87.0512 16.4822 88.9976 16.4822C92.2555 16.4822 94.2833 19.1106 94.3025 22.3626C94.3025 22.3724 94.3025 22.3822 94.3025 22.3922V22.3937C94.3025 22.3989 94.3025 22.4041 94.3025 22.4093V31.8524H91.4401V22.4093C91.4401 20.7167 90.068 19.2824 88.3754 19.2824C86.6827 19.2824 85.3107 20.7167 85.3107 22.4093V31.8524H82.4483V22.4093C82.4483 20.7167 81.0762 19.2824 79.3836 19.2824Z" fill="#525252"/>
<path fill-rule="evenodd" clip-rule="evenodd" d="M109.547 18.6107C108.273 17.2958 106.529 16.4822 104.506 16.4822C100.248 16.4822 97.2258 20.0877 97.2258 24.385C97.2258 28.6824 100.248 32.2879 104.506 32.2879C106.529 32.2879 108.273 31.4743 109.547 30.1594V31.8524H112.409V16.9177H109.547V18.6107ZM100.088 24.385C100.088 21.534 102.271 19.2824 104.817 19.2824C107.364 19.2824 109.547 21.534 109.547 24.385C109.547 27.2361 107.364 29.4877 104.817 29.4877C102.271 29.4877 100.088 27.2361 100.088 24.385Z" fill="#525252"/>
</svg>
