<svg width="145" height="48" viewBox="0 0 145 48" fill="none" xmlns="http://www.w3.org/2000/svg">
<path d="M87.594 13.4353H83.8325V34.4728C87.251 34.5904 90.6551 34.7628 94.0454 34.9889V31.2825C91.9008 31.1395 89.7505 31.0182 87.594 30.9178V13.4353ZM117.488 13.4374H113.356L110.632 19.7505L108.185 13.4374H104.115L108.489 24.7181L103.714 35.7848C105.035 35.9137 106.352 36.0511 107.668 36.1964L110.445 29.7618L113.195 36.855C114.627 37.0391 116.056 37.2313 117.482 37.4348L117.488 37.4324L112.588 24.7943L117.488 13.4374ZM70.9201 34.2889L74.6818 34.2881V25.7306H79.7811V22.0243H74.6818V17.1774H81.4212V13.4376H70.9201V34.2889ZM56.873 17.1771H60.8101V34.5093C62.0618 34.462 63.3161 34.4231 64.5717 34.3902V17.1771H68.5085V13.4374H56.873V17.1771ZM44.0128 35.5865C47.4798 35.2715 50.9628 35.0118 54.4616 34.8103V31.1035C52.2262 31.2327 49.997 31.3857 47.7744 31.5604V25.949C49.2328 25.9345 51.1531 25.89 52.8543 25.9112V22.2045C51.4952 22.2012 49.3108 22.2234 47.7744 22.2431V17.1774H54.4616V13.4376H44.0128V35.5865ZM36.6339 27.0179L31.7347 13.4374H28.1597V37.4353C29.4111 37.2571 30.665 37.0866 31.9213 36.9229V23.873L36.2776 36.3871C37.6477 36.2282 39.0203 36.0777 40.3956 35.9363V13.4374H36.6339V27.0179ZM97.1466 35.2121C98.4023 35.3081 99.6561 35.4112 100.909 35.5227V13.4374H97.1466V35.2121Z" fill="#525252"/>
</svg>
