<svg width="145" height="48" viewBox="0 0 145 48" fill="none" xmlns="http://www.w3.org/2000/svg">
<path fill-rule="evenodd" clip-rule="evenodd" d="M39.8639 10.08C32.0747 10.08 25.76 16.3946 25.76 24.1839C25.76 31.9739 32.0747 38.2882 39.8639 38.2882C47.6537 38.2882 53.9681 31.9739 53.9681 24.1839C53.9681 16.3946 47.6537 10.08 39.8639 10.08ZM48.2069 22.5836C43.6606 19.8836 36.1616 19.6354 31.8216 20.9528C31.1245 21.1641 30.3875 20.7707 30.1765 20.0738C29.9651 19.3764 30.3582 18.6398 31.0556 18.428C36.0378 16.9157 44.3196 17.2079 49.5534 20.3148C50.1805 20.6868 50.3861 21.4964 50.0144 22.1223C49.6425 22.7492 48.8323 22.9558 48.2069 22.5836ZM48.0581 26.5826C47.7392 27.1001 47.0625 27.2623 46.5456 26.9447C42.7554 24.6149 36.9756 23.9399 32.4914 25.3011C31.91 25.4769 31.2958 25.149 31.1191 24.5686C30.944 23.987 31.2719 23.374 31.8524 23.1972C36.9749 21.6426 43.343 22.3955 47.6963 25.0708C48.2132 25.3892 48.3759 26.0662 48.0581 26.5826ZM46.3323 30.4231C46.079 30.8386 45.5377 30.9689 45.1237 30.7156C41.8115 28.6914 37.6428 28.2341 32.7334 29.3556C32.2603 29.4641 31.7887 29.1675 31.681 28.6946C31.5725 28.2215 31.8679 27.7501 32.342 27.6421C37.7146 26.414 42.3232 26.9425 46.0407 29.2142C46.4552 29.4673 46.5857 30.0088 46.3323 30.4231Z" fill="#525252"/>
<path d="M64.1315 23.1006C61.6963 22.5197 61.2626 22.1121 61.2626 21.2559C61.2626 20.4468 62.0246 19.9023 63.1573 19.9023C64.2554 19.9023 65.3441 20.3159 66.4858 21.1671C66.5203 21.1927 66.5636 21.2032 66.6062 21.1964C66.6488 21.19 66.6864 21.1666 66.7115 21.1314L67.9005 19.4553C67.9494 19.3862 67.9361 19.2911 67.8702 19.2384C66.5116 18.148 64.9817 17.618 63.1934 17.618C60.564 17.618 58.7274 19.1959 58.7274 21.4536C58.7274 23.8748 60.3117 24.7319 63.0496 25.3936C65.3798 25.9304 65.7731 26.3801 65.7731 27.184C65.7731 28.0747 64.9778 28.6285 63.698 28.6285C62.2767 28.6285 61.1171 28.1497 59.8201 27.0265C59.7879 26.9989 59.7438 26.9861 59.7031 26.9884C59.6603 26.992 59.621 27.0118 59.5938 27.0447L58.2605 28.6314C58.2046 28.6972 58.2117 28.7956 58.2762 28.8525C59.7854 30.1997 61.6412 30.9115 63.6441 30.9115C66.4774 30.9115 68.3083 29.3632 68.3083 26.967C68.3083 24.9421 67.0984 23.8221 64.1315 23.1006Z" fill="#525252"/>
<path fill-rule="evenodd" clip-rule="evenodd" d="M71.6532 22.1735C72.4839 21.1824 73.4912 20.6988 74.7193 20.6988C77.0012 20.6988 79.3113 22.4558 79.3113 25.8146C79.3113 29.1724 77.0012 30.9291 74.7193 30.9291C73.4915 30.9291 72.4841 30.4737 71.6532 29.5413V33.454C71.6532 33.5421 71.5818 33.6139 71.4938 33.6139H69.3134C69.2253 33.6139 69.1541 33.5421 69.1541 33.454V21.0579C69.1541 20.97 69.2253 20.8983 69.3134 20.8983H71.4938C71.5818 20.8983 71.6532 20.97 71.6532 21.0579V22.1735ZM74.2146 28.7177C75.7228 28.7177 76.7761 27.5244 76.7761 25.8146C76.7761 24.1321 75.6985 22.9114 74.2146 22.9114C72.7236 22.9114 71.5988 24.1591 71.5988 25.8146C71.5988 27.4702 72.7236 28.7177 74.2146 28.7177Z" fill="#525252"/>
<path fill-rule="evenodd" clip-rule="evenodd" d="M85.2326 20.6988C82.2939 20.6988 79.9916 22.9617 79.9916 25.851C79.9916 28.709 82.278 30.9481 85.1966 30.9481C88.1458 30.9481 90.4551 28.6928 90.4551 25.8146C90.4551 22.9458 88.1616 20.6988 85.2326 20.6988ZM85.2326 28.7356C83.6695 28.7356 82.4911 27.4796 82.4911 25.8146C82.4911 24.1424 83.6288 22.9289 85.1966 22.9289C86.7698 22.9289 87.9561 24.1848 87.9561 25.851C87.9561 27.5229 86.8107 28.7356 85.2326 28.7356Z" fill="#525252"/>
<path d="M94.3313 20.8983H96.7307C96.8188 20.8983 96.8897 20.9701 96.8897 21.058V22.932C96.8897 23.0201 96.8188 23.0918 96.7307 23.0918H94.3313V27.5991C94.3313 28.311 94.6435 28.6285 95.343 28.6285C95.7968 28.6285 96.2029 28.531 96.6229 28.3196C96.6716 28.2955 96.7307 28.297 96.7782 28.3269C96.8252 28.3558 96.854 28.4077 96.854 28.4628V30.2474C96.854 30.3043 96.823 30.3578 96.7733 30.3856C96.1618 30.7324 95.5129 30.8939 94.7308 30.8939C92.8072 30.8939 91.8319 29.9004 91.8319 27.9408V23.0918H90.7835C90.6956 23.0918 90.6247 23.0201 90.6247 22.932V21.058C90.6247 20.9701 90.6956 20.8983 90.7835 20.8983H91.8319V18.4449C91.8319 18.357 91.9037 18.2853 91.9919 18.2853H94.1721C94.2602 18.2853 94.3313 18.357 94.3313 18.4449V20.8983Z" fill="#525252"/>
<path d="M105.091 20.9077V20.6064C105.091 19.72 105.431 19.3247 106.193 19.3247C106.647 19.3247 107.013 19.4151 107.421 19.5514C107.472 19.5672 107.524 19.5593 107.565 19.5293C107.607 19.4992 107.631 19.4508 107.631 19.3996V17.5622C107.631 17.4919 107.586 17.4296 107.518 17.4091C107.086 17.2806 106.534 17.1485 105.706 17.1485C103.692 17.1485 102.628 18.2828 102.628 20.4272V20.8887H101.58C101.492 20.8887 101.42 20.9604 101.42 21.0485V22.9319C101.42 23.02 101.492 23.0918 101.58 23.0918H102.628V30.5712C102.628 30.6593 102.699 30.7308 102.787 30.7308H104.967C105.055 30.7308 105.127 30.6593 105.127 30.5712V23.0918H107.163L110.281 30.5692C109.927 31.3548 109.579 31.5111 109.104 31.5111C108.72 31.5111 108.315 31.3964 107.901 31.1701C107.863 31.1487 107.817 31.1452 107.774 31.1581C107.733 31.173 107.698 31.2038 107.68 31.2444L106.941 32.8658C106.906 32.9424 106.936 33.0323 107.01 33.0721C107.781 33.4899 108.478 33.6683 109.338 33.6683C110.949 33.6683 111.838 32.9181 112.623 30.9004L116.406 21.1255C116.425 21.0763 116.419 21.0207 116.389 20.9771C116.359 20.9338 116.311 20.9077 116.258 20.9077H113.988C113.92 20.9077 113.859 20.951 113.837 21.0148L111.512 27.6568L108.965 21.0104C108.941 20.9486 108.882 20.9077 108.816 20.9077H105.091Z" fill="#525252"/>
<path d="M98.064 20.8981H100.245C100.332 20.8981 100.404 20.9698 100.404 21.0577V30.571C100.404 30.6591 100.332 30.7307 100.245 30.7307H98.064C97.976 30.7307 97.9044 30.6591 97.9044 30.571V21.0577C97.9044 20.9698 97.976 20.8981 98.064 20.8981Z" fill="#525252"/>
<path d="M99.1645 16.5668C98.3008 16.5668 97.5997 17.2661 97.5997 18.1299C97.5997 18.9943 98.3008 19.6944 99.1645 19.6944C100.028 19.6944 100.728 18.9943 100.728 18.1299C100.728 17.2661 100.028 16.5668 99.1645 16.5668Z" fill="#525252"/>
<path fill-rule="evenodd" clip-rule="evenodd" d="M119.048 23.1788L118.614 22.5709C118.835 22.5071 118.988 22.3458 118.988 22.0817C118.988 21.7595 118.742 21.568 118.367 21.568H117.649V23.1788H117.955V22.6213H118.291L118.682 23.1788H119.048ZM117.955 21.8442H118.355C118.554 21.8442 118.673 21.9331 118.673 22.0989C118.673 22.2562 118.554 22.3537 118.355 22.3537H117.955V21.8442Z" fill="#525252"/>
<path fill-rule="evenodd" clip-rule="evenodd" d="M116.731 22.4219C116.731 23.2635 117.403 23.9565 118.266 23.9565C119.129 23.9565 119.808 23.2549 119.808 22.4131C119.808 21.5722 119.137 20.8793 118.274 20.8793C117.411 20.8793 116.731 21.5803 116.731 22.4219ZM116.893 22.4219C116.893 21.6567 117.488 21.0319 118.274 21.0319C119.056 21.0319 119.647 21.6485 119.647 22.4131C119.647 23.1788 119.052 23.8031 118.266 23.8031C117.484 23.8031 116.893 23.1867 116.893 22.4219Z" fill="#525252"/>
</svg>
