<svg width="173" height="48" viewBox="0 0 173 48" fill="none" xmlns="http://www.w3.org/2000/svg">
<path d="M127.675 29.1634C126.551 29.1634 126.072 28.1098 126.072 26.4074C126.073 24.1634 126.584 19.7769 129.074 19.7769C130.199 19.7769 130.574 20.7971 130.574 22.2935C130.574 24.5373 130.028 29.1634 127.675 29.1634ZM129.79 14.9472C122.73 14.9472 119.661 20.356 119.661 26.1365C119.661 30.5232 121.434 34.0264 126.789 34.0264C134.02 34.0264 137.056 28.1096 137.056 22.3962C137.056 18.0767 135.111 14.9472 129.79 14.9472ZM113.651 14.9472C111.298 14.9472 109.592 15.6628 107.785 16.9538C107.136 15.7974 105.84 14.9472 103.862 14.9479C101.577 14.9479 99.8724 15.8672 98.6105 16.7843L98.44 15.254H93.0156L90.1173 33.5842H96.46L98.4733 20.7301C99.0189 20.4573 99.8364 20.0836 100.655 20.0836C101.269 20.0836 101.781 20.2875 101.781 21.2066C101.781 21.4437 101.713 21.8173 101.68 22.1237L99.8722 33.584H106.182L108.193 20.7299C108.774 20.4235 109.558 20.0834 110.341 20.0834C110.957 20.0834 111.469 20.2873 111.469 21.2065C111.469 21.4435 111.399 21.8172 111.366 22.1235L109.558 33.5838H115.869L117.811 21.3407C117.914 20.6961 118.018 19.7097 118.018 19.0297C118.018 16.5801 116.891 14.9472 113.651 14.9472ZM84.7208 14.9476C82.3003 14.9476 80.5944 15.8669 79.2988 16.7169L79.2293 15.2538H73.7379L70.8391 33.584H77.184L79.1956 20.7299C79.7413 20.4571 80.5606 20.0834 81.3778 20.0834C81.9932 20.0834 82.505 20.2871 82.505 21.1035C82.505 21.4435 82.4017 22.0563 82.368 22.3607L80.5944 33.5838H86.9037L88.8481 21.3407C88.9511 20.6961 89.0547 19.7097 89.0547 19.0297C89.0547 16.5801 87.9275 14.9472 84.7208 14.9476ZM61.0113 22.6668C61.1822 20.6268 62.7493 19.1996 63.9436 19.1996C64.6262 19.1996 65.2055 19.6069 65.2055 20.4232C65.2055 22.1233 62.2037 22.6668 61.0113 22.6668ZM64.5585 14.9472C57.8054 14.9471 54.5297 20.7971 54.5297 26.3065C54.5296 30.5572 56.5433 33.9574 62.1698 33.9574C64.3879 33.9574 66.6731 33.4812 68.1395 32.7673L68.9233 27.4631C66.8422 28.517 65.2411 28.9242 63.5687 28.9242C62.033 28.9242 60.8747 28.1097 60.8747 26.0338C64.3543 26.0002 70.3559 24.5728 70.3556 19.9132C70.3556 17.0229 68.2765 14.9472 64.5585 14.9472ZM46.713 16.0702C47.088 16.8531 47.328 17.8038 47.328 19.1996C47.3279 21.7498 45.5186 25.4902 44.0525 27.8702L42.4834 15.2872L36.0039 15.9002L38.9716 33.5839H46.3716C49.6115 29.3333 53.6034 23.2801 53.6035 18.6203C53.6035 17.1594 53.2959 16.0028 52.6136 14.88L46.713 16.0702Z" fill="#525252"/>
</svg>
