<svg width="173" height="48" viewBox="0 0 173 48" fill="none" xmlns="http://www.w3.org/2000/svg">
<path d="M92.4149 12.8266H98.9135L95.6441 36.1489H89.1459L92.4149 12.8266ZM84.2223 12.8266L79.8369 26.2618L77.9231 12.8266H73.3782L67.6373 26.2219L66.9198 12.8266H60.6206L62.8134 36.1489H68.0361L74.4946 21.3981L76.7671 36.1489H81.9099L90.4017 12.8266H84.2223ZM138.781 26.3814H123.352C123.432 29.4115 125.246 31.4048 127.917 31.4048C129.93 31.4048 131.525 30.3283 132.761 28.2753L137.969 30.6434C136.18 34.1696 132.408 36.4678 127.757 36.4678C121.419 36.4678 117.213 32.202 117.213 25.345C117.213 17.81 122.156 12.4678 129.133 12.4678C135.272 12.4678 139.14 16.614 139.14 23.0725C139.14 24.1489 139.02 25.2254 138.781 26.3814ZM133 21.9164C133 19.2054 131.485 17.4911 129.053 17.4911C126.621 17.4911 124.468 19.2851 123.91 21.9164H133ZM40.3102 19.8552L33.6763 27.6075H45.5209L46.8525 23.9516H41.7773L44.879 20.3655L44.889 20.2699L42.8717 16.7994H51.9436L44.9109 36.1489H49.7229L58.2147 12.8266H36.2756L40.3082 19.8552H40.3102ZM109.478 17.4911C111.771 17.4911 113.78 18.723 115.534 20.836L116.455 14.2619C114.82 13.1556 112.608 12.4678 109.678 12.4678C103.857 12.4678 100.588 15.8765 100.588 20.2021C100.588 23.2021 102.262 25.036 105.013 26.2219L106.329 26.8201C108.78 27.8666 109.438 28.3848 109.438 29.4912C109.438 30.5975 108.332 31.3649 106.648 31.3649C103.867 31.3748 101.614 29.9496 99.9201 27.5177L98.9812 34.2174C100.911 35.6886 103.385 36.4678 106.648 36.4678C112.179 36.4678 115.578 33.2785 115.578 28.8532C115.578 25.8433 114.242 23.9098 110.874 22.3948L109.438 21.717C107.445 20.83 106.767 20.3416 106.767 19.3649C106.767 18.3084 107.694 17.4911 109.478 17.4911Z" fill="#525252"/>
</svg>
